<svg xmlns="http://www.w3.org/2000/svg" width="60" height="64" viewBox="0 0 60 64">
    <defs>
        <linearGradient id="a" x1="0%" x2="92.626%" y1="0%" y2="0%">
            <stop offset="0%" stop-color="#0064B2"/>
            <stop offset="100%" stop-color="#10ADF6"/>
        </linearGradient>
        <linearGradient id="b" x1="0%" x2="92.626%" y1="0%" y2="0%">
            <stop offset="0%" stop-color="#0064B2"/>
            <stop offset="100%" stop-color="#10ADF6"/>
        </linearGradient>
        <linearGradient id="c" x1="0%" x2="92.626%" y1="0%" y2="0%">
            <stop offset="0%" stop-color="#0064B2"/>
            <stop offset="100%" stop-color="#10ADF6"/>
        </linearGradient>
        <linearGradient id="d" x1="0%" x2="92.626%" y1="0%" y2="0%">
            <stop offset="0%" stop-color="#0064B2"/>
            <stop offset="100%" stop-color="#10ADF6"/>
        </linearGradient>
        <linearGradient id="e" x1="0%" x2="92.626%" y1="0%" y2="0%">
            <stop offset="0%" stop-color="#0064B2"/>
            <stop offset="100%" stop-color="#10ADF6"/>
        </linearGradient>
        <linearGradient id="f" x1="0%" x2="92.626%" y1="0%" y2="0%">
            <stop offset="0%" stop-color="#0064B2"/>
            <stop offset="100%" stop-color="#10ADF6"/>
        </linearGradient>
        <linearGradient id="g" x1="0%" x2="92.626%" y1="0%" y2="0%">
            <stop offset="0%" stop-color="#0064B2"/>
            <stop offset="100%" stop-color="#10ADF6"/>
        </linearGradient>
        <linearGradient id="h" x1="0%" x2="92.626%" y1="0%" y2="0%">
            <stop offset="0%" stop-color="#0064B2"/>
            <stop offset="100%" stop-color="#10ADF6"/>
        </linearGradient>
    </defs>
    <g fill="none" fill-rule="evenodd">
        <path fill="" d="M-398-863h1920V9725H-398z"/>
        <g fill-rule="nonzero">
            <path fill="url(#a)" d="M52 8h7v2h-9V1h2z"/>
            <path fill="url(#b)" d="M18 54h11v2H17a1 1 0 0 1-1-1V1a1 1 0 0 1 1-1h34a1 1 0 0 1 .707.293l8 8A1 1 0 0 1 60 9v46a1 1 0 0 1-1 1H47v-2h11V9.414L50.586 2H18v52z"/>
            <path fill="url(#c)" d="M43 51h2v12a1 1 0 0 1-1.64.768L38 59.302l-5.36 4.466A1 1 0 0 1 31 63V51h2v9.865l4.36-3.633a1 1 0 0 1 1.28 0L43 60.865V51z"/>
            <path fill="url(#a)" d="M52 38c0 1.702-1.07 3.18-2.61 3.75-.193.588-.43 1.157-.708 1.704.207.486.318 1.008.318 1.546 0 2.208-1.792 4-4 4-.538 0-1.06-.11-1.546-.318-.547.279-1.116.515-1.704.708a3.999 3.999 0 0 1-7.5 0 11.854 11.854 0 0 1-1.704-.708A3.924 3.924 0 0 1 31 49c-2.208 0-4-1.792-4-4 0-.538.11-1.06.318-1.546a11.854 11.854 0 0 1-.708-1.704 3.999 3.999 0 0 1 0-7.5c.193-.588.43-1.157.708-1.704A3.924 3.924 0 0 1 27 31c0-2.208 1.792-4 4-4 .538 0 1.06.11 1.546.318.547-.279 1.116-.515 1.704-.708a3.999 3.999 0 0 1 7.5 0c.588.193 1.157.43 1.704.708A3.924 3.924 0 0 1 45 27c2.208 0 4 1.792 4 4 0 .538-.11 1.06-.318 1.546.279.547.515 1.116.708 1.704A3.999 3.999 0 0 1 52 38zm-2 0c0-.958-.678-1.774-1.605-1.96l-.605-.12-.164-.594a9.862 9.862 0 0 0-.942-2.271l-.294-.514.31-.505c.196-.32.3-.673.3-1.036 0-1.104-.896-2-2-2-.363 0-.716.104-1.036.3l-.505.31-.514-.294a9.862 9.862 0 0 0-2.271-.942l-.594-.164-.12-.605a1.998 1.998 0 0 0-3.92 0l-.12.605-.594.164c-.8.22-1.562.537-2.271.942l-.514.294-.505-.31c-.32-.196-.673-.3-1.036-.3-1.104 0-2 .896-2 2 0 .363.104.716.3 1.036l.31.505-.294.514a9.862 9.862 0 0 0-.942 2.271l-.164.594-.605.12a1.998 1.998 0 0 0 0 3.92l.605.12.164.594c.22.8.537 1.562.942 2.271l.294.514-.31.505c-.196.32-.3.673-.3 1.036 0 1.104.896 2 2 2 .363 0 .716-.104 1.036-.3l.505-.31.514.294c.71.405 1.47.721 2.271.942l.594.164.12.605a1.998 1.998 0 0 0 3.92 0l.12-.605.594-.164a9.862 9.862 0 0 0 2.271-.942l.514-.294.505.31c.32.196.673.3 1.036.3 1.104 0 2-.896 2-2 0-.363-.104-.716-.3-1.036l-.31-.505.294-.514c.405-.71.721-1.47.942-2.271l.164-.594.605-.12A1.998 1.998 0 0 0 50 38z"/>
            <path fill="#E4032E" d="M43 38a5 5 0 0 0-10 0 5 5 0 0 0 10 0zm2 0a7 7 0 0 1-14 0 7 7 0 0 1 14 0z"/>
            <path fill="url(#d)" d="M5 56v-2h6v2zM5 40v-2h6v2zM5 7V5h6v2z"/>
            <path fill="url(#e)" d="M12 4v54a1 1 0 0 1-.143.514l-3 5a1 1 0 0 1-1.714 0l-3-5A1 1 0 0 1 4 58V4a4.001 4.001 0 0 1 8 0zm-2 0a2.001 2.001 0 0 0-4 0v53.723l2 3.333 2-3.333V4z"/>
            <path fill="url(#f)" d="M22 7V5h12v2z"/>
            <path fill="url(#g)" d="M22 14v-2h32v2zM22 18v-2h32v2zM22 22v-2h32v2z"/>
            <path fill="url(#h)" d="M2 11v18H0V10a1 1 0 0 1 1-1h10v2H2z"/>
        </g>
    </g>
</svg>
