<svg xmlns="http://www.w3.org/2000/svg" width="64" height="60" viewBox="0 0 64 60">
    <defs>
        <linearGradient id="a" x1="0%" x2="92.626%" y1="0%" y2="0%">
            <stop offset="0%" stop-color="#2F7CFE"/>
            <stop offset="100%" stop-color="#10ADF6"/>
        </linearGradient>
        <linearGradient id="b" x1="0%" x2="92.626%" y1="0%" y2="0%">
            <stop offset="0%" stop-color="#2F7CFE"/>
            <stop offset="100%" stop-color="#10ADF6"/>
        </linearGradient>
        <linearGradient id="c" x1="0%" x2="92.626%" y1="0%" y2="0%">
            <stop offset="0%" stop-color="#2F7CFE"/>
            <stop offset="100%" stop-color="#10ADF6"/>
        </linearGradient>
        <linearGradient id="d" x1="0%" x2="92.626%" y1="0%" y2="0%">
            <stop offset="0%" stop-color="#2F7CFE"/>
            <stop offset="100%" stop-color="#10ADF6"/>
        </linearGradient>
        <linearGradient id="e" x1="0%" x2="92.626%" y1="0%" y2="0%">
            <stop offset="0%" stop-color="#2F7CFE"/>
            <stop offset="100%" stop-color="#10ADF6"/>
        </linearGradient>
        <linearGradient id="f" x1="0%" x2="92.626%" y1="0%" y2="0%">
            <stop offset="0%" stop-color="#2F7CFE"/>
            <stop offset="100%" stop-color="#10ADF6"/>
        </linearGradient>
        <linearGradient id="g" x1="0%" x2="92.626%" y1="0%" y2="0%">
            <stop offset="0%" stop-color="#2F7CFE"/>
            <stop offset="100%" stop-color="#10ADF6"/>
        </linearGradient>
        <linearGradient id="h" x1="0%" x2="92.626%" y1="0%" y2="0%">
            <stop offset="0%" stop-color="#2F7CFE"/>
            <stop offset="100%" stop-color="#10ADF6"/>
        </linearGradient>
    </defs>
    <g fill="none" fill-rule="nonzero">
        <path fill="url(#a)" d="M20 60h-2v-7c0-6.397 2.232-8.821 8.291-11.16l1.52-.58a61.355 61.355 0 0 0 1.552-.614 27.178 27.178 0 0 0 3.14-1.514l.993 1.736a29.125 29.125 0 0 1-3.368 1.626c-.485.2-.98.396-1.602.634-.16.061-1.217.463-1.515.578C21.646 45.776 20 47.564 20 53v7zM48.504 40.868l.992-1.736a27.178 27.178 0 0 0 3.141 1.514c.467.193.946.382 1.553.615.155.06 1.215.462 1.519.58C61.768 44.178 64 46.602 64 53v7h-2v-7c0-5.436-1.646-7.223-7.011-9.294-.298-.115-1.356-.517-1.515-.578a63.233 63.233 0 0 1-1.602-.634 29.125 29.125 0 0 1-3.368-1.626z"/>
        <path fill="url(#b)" d="M47.713 39.873l-1.186-1.78-5.527.92-5.527-.92-1.186 1.78 2.91 2.91L41 40.882l3.803 1.901 2.91-2.91zM41 36.986l6.473-1.079 2.814 4.22-5.09 5.09L41 43.118l-4.197 2.099-5.09-5.09 2.814-4.22L41 36.987z"/>
        <path fill="url(#c)" d="M45 33h2v4h-2zM37 37h-2v-4h2z"/>
        <path fill="url(#d)" d="M40 52v-2h2v2zM40 48v-2h2v2z"/>
        <path fill="url(#e)" d="M51 20v4l-.01.141c-.376 2.63-1.05 4.785-1.942 6.51-.89 1.721-1.816 2.73-2.493 3.181l-.108.062a8.95 8.95 0 0 1-1.83.654c-.796.2-1.638.326-2.48.396-.504.042-.9.056-1.137.056s-.633-.014-1.138-.056c-.84-.07-1.683-.197-2.48-.396a8.95 8.95 0 0 1-1.83-.654l-.107-.062c-.677-.452-1.603-1.46-2.493-3.18-.893-1.726-1.566-3.882-1.942-6.51L31 24v-4c0-6.627 3.373-10 10-10s10 3.373 10 10zm-2 0c0-5.523-2.477-8-8-8s-8 2.477-8 8v3.928c.346 2.38.948 4.297 1.728 5.805.432.834.887 1.483 1.334 1.97.209.228.366.369.452.435.384.185.84.342 1.354.47.68.17 1.42.281 2.16.343.445.037.787.049.972.049.185 0 .527-.012.972-.05.74-.061 1.48-.172 2.16-.342.514-.128.97-.285 1.354-.47a4.05 4.05 0 0 0 .452-.435c.447-.487.902-1.136 1.334-1.97.78-1.508 1.382-3.426 1.728-5.805V20z"/>
        <path fill="url(#f)" d="M32.447 20.894l-.894-1.788 4.401-2.201 10 4 3.599-1.8.894 1.79-4.401 2.2-10-4z"/>
        <path fill="url(#g)" d="M28 60h-2v-6h2zM56 60h-2v-6h2z"/>
        <path fill="url(#h)" d="M2 8v5c0 14.26 6.336 23.628 15.517 29.152l-1.032 1.714C6.747 38.006 0 28.03 0 13V7a1 1 0 0 1 1-1h5.795L20.606.08a1 1 0 0 1 .788 0l14 6-.788 1.839L21 2.088 7.394 7.918A1 1 0 0 1 7 8H2z"/>
        <path fill="#D0021B" d="M21.102 36.804c.458-.265.97-.584 1.524-.96a29.568 29.568 0 0 0 4.655-3.915 27.31 27.31 0 0 0 1.5-1.685l1.548 1.266a29.31 29.31 0 0 1-1.609 1.809 31.552 31.552 0 0 1-4.97 4.18 26.75 26.75 0 0 1-1.65 1.037c-.304.176-.526.295-.653.358l-.447.224-.448-.224a12.883 12.883 0 0 1-.657-.362c-.5-.29-1.055-.641-1.651-1.053a30.623 30.623 0 0 1-4.975-4.297C8.73 28.321 5.999 22.272 5.999 15v-3h3.784L21 6.902l9.412 4.279-.828 1.82L21 9.098 10.216 14H8v1c0 6.727 2.518 12.304 6.73 16.818a28.636 28.636 0 0 0 4.65 4.015 23.432 23.432 0 0 0 1.621 1.028l.1-.057z"/>
        <path fill="url(#d)" d="M20 14h2v2h-2zM20 18h2v2h-2zM20 22h2v2h-2z"/>
    </g>
</svg>
